<svg width="30" height="32" viewBox="0 0 30 32" fill="none" xmlns="http://www.w3.org/2000/svg">
<path d="M23.3333 22.6685L16.6667 16.0018V10.7018C18.9167 9.88514 20.4333 7.55181 19.8833 4.93514C19.4667 2.96847 17.8333 1.40181 15.85 1.06847C12.7167 0.551807 10 2.95181 10 6.00181C10 8.16848 11.4 10.0018 13.3333 10.7018V16.0018L6.66667 22.6685H1.66667C0.75 22.6685 0 23.4185 0 24.3351V29.3351C0 30.2518 0.75 31.0018 1.66667 31.0018H6.66667C7.58333 31.0018 8.33333 30.2518 8.33333 29.3351V25.9185L15 18.9185L21.6667 25.9185V29.3351C21.6667 30.2518 22.4167 31.0018 23.3333 31.0018H28.3333C29.25 31.0018 30 30.2518 30 29.3351V24.3351C30 23.4185 29.25 22.6685 28.3333 22.6685H23.3333Z" fill="#1421FF"/>
</svg>
