<svg width="34" height="34" viewBox="0 0 34 34" fill="none" xmlns="http://www.w3.org/2000/svg">
<path fill-rule="evenodd" clip-rule="evenodd" d="M0.333008 16.9999C0.333008 7.79992 7.79967 0.333252 16.9997 0.333252C26.1997 0.333252 33.6663 7.79992 33.6663 16.9999C33.6663 26.1999 26.1997 33.6666 16.9997 33.6666C7.79967 33.6666 0.333008 26.1999 0.333008 16.9999ZM6.16634 21.9999C6.16634 24.2999 8.03301 26.1666 10.333 26.1666C12.633 26.1666 14.4997 24.2999 14.4997 21.9999C14.4997 19.6999 12.633 17.8333 10.333 17.8333C8.03301 17.8333 6.16634 19.6999 6.16634 21.9999ZM12.833 10.3333C12.833 8.03325 14.6997 6.16659 16.9997 6.16659C19.2997 6.16659 21.1663 8.03325 21.1663 10.3333C21.1663 12.6333 19.2997 14.4999 16.9997 14.4999C14.6997 14.4999 12.833 12.6333 12.833 10.3333ZM19.4997 21.9999C19.4997 24.2999 21.3663 26.1666 23.6663 26.1666C25.9663 26.1666 27.833 24.2999 27.833 21.9999C27.833 19.6999 25.9663 17.8333 23.6663 17.8333C21.3663 17.8333 19.4997 19.6999 19.4997 21.9999Z" fill="#1421FF"/>
</svg>
