<svg width="34" height="34" viewBox="0 0 34 34" fill="none" xmlns="http://www.w3.org/2000/svg">
<path fill-rule="evenodd" clip-rule="evenodd" d="M0.333008 17C0.333008 7.83333 7.83301 0.333334 16.9997 0.333334C26.1663 0.333334 33.6663 7.83333 33.6663 17C33.6663 26.1667 26.1663 33.6667 16.9997 33.6667C7.83301 33.6667 0.333008 26.1667 0.333008 17ZM16.1163 19.15L22.9163 23.3333C23.5163 23.7 24.2997 23.5167 24.6663 22.9333C25.033 22.3333 24.833 21.55 24.233 21.1833L17.833 17.3333V9.91667C17.833 9.23333 17.2663 8.66667 16.583 8.66667C15.8997 8.66667 15.333 9.23333 15.3163 9.91667V17.7333C15.3163 18.3167 15.6163 18.85 16.1163 19.15Z" fill="#1421FF"/>
</svg>
