<svg width="34" height="40" viewBox="0 0 34 40" fill="none" xmlns="http://www.w3.org/2000/svg">
<path fill-rule="evenodd" clip-rule="evenodd" d="M28.6663 0H5.33301C4.41634 0 3.66634 0.75 3.66634 1.66667C3.66634 2.58333 4.41634 3.33333 5.33301 3.33333H28.6663C29.583 3.33333 30.333 2.58333 30.333 1.66667C30.333 0.75 29.583 0 28.6663 0ZM28.6663 40C29.583 40 30.333 39.25 30.333 38.3333C30.333 37.4167 29.583 36.6667 28.6663 36.6667H5.33301C4.41634 36.6667 3.66634 37.4167 3.66634 38.3333C3.66634 39.25 4.41634 40 5.33301 40H28.6663ZM3.66634 6.66667H30.333C32.1663 6.66667 33.6663 8.16667 33.6663 10V30C33.6663 31.8333 32.1663 33.3333 30.333 33.3333H3.66634C1.83301 33.3333 0.333008 31.8333 0.333008 30V10C0.333008 8.16667 1.83301 6.66667 3.66634 6.66667ZM16.9997 11.25C19.0663 11.25 20.7497 12.9333 20.7497 15C20.7497 17.0667 19.0663 18.75 16.9997 18.75C14.933 18.75 13.2497 17.0667 13.2497 15C13.2497 12.9333 14.933 11.25 16.9997 11.25ZM8.66634 28.3333H25.333V25.8333C25.333 23.05 19.783 21.6667 16.9997 21.6667C14.2163 21.6667 8.66634 23.05 8.66634 25.8333V28.3333Z" fill="#1421FF"/>
</svg>
