<svg width="28" height="34" viewBox="0 0 28 34" fill="none" xmlns="http://www.w3.org/2000/svg">
<path fill-rule="evenodd" clip-rule="evenodd" d="M27.3337 11.7163V29.6497L20.9503 23.2497C22.1337 21.4497 22.667 19.183 22.117 16.7497C21.4003 13.533 18.7003 10.9997 15.4503 10.4497C9.81699 9.49967 5.00033 14.2163 5.73366 19.7997C6.26699 23.7163 9.65032 26.7997 13.6003 26.983C15.4503 27.083 17.167 26.5497 18.6003 25.6163L25.9837 32.9997C25.417 33.4163 24.7503 33.6663 24.0003 33.6663H3.98366C2.15033 33.6663 0.666992 32.1663 0.666992 30.333L0.683659 3.66634C0.683659 1.83301 2.16699 0.333008 4.00033 0.333008H15.9503C16.8337 0.333008 17.6837 0.683008 18.3003 1.31634L26.3503 9.36634C26.9837 9.98301 27.3337 10.833 27.3337 11.7163ZM14.0003 23.6663C11.2337 23.6663 9.00033 21.433 9.00033 18.6663C9.00033 15.8997 11.2337 13.6663 14.0003 13.6663C16.767 13.6663 19.0003 15.8997 19.0003 18.6663C19.0003 21.433 16.767 23.6663 14.0003 23.6663Z" fill="#1421FF"/>
</svg>
