<svg width="36" height="30" viewBox="0 0 36 30" fill="none" xmlns="http://www.w3.org/2000/svg">
<path fill-rule="evenodd" clip-rule="evenodd" d="M1.43965 8.52712L15.4896 0.860449C16.4896 0.327116 17.6896 0.327116 18.6896 0.860449L34.5563 9.51045C35.0896 9.81045 35.423 10.3604 35.423 10.9771V21.6604C35.423 22.5771 34.673 23.3271 33.7563 23.3271C32.8396 23.3271 32.0896 22.5771 32.0896 21.6604V11.8104L18.6896 19.1271C17.6896 19.6771 16.4896 19.6771 15.4896 19.1271L1.43965 11.4604C0.289648 10.8271 0.289648 9.16045 1.43965 8.52712ZM5.42298 21.6438V16.9604L15.4897 22.4604C16.4897 23.0104 17.6897 23.0104 18.6897 22.4604L28.7563 16.9604V21.6438C28.7563 22.8604 28.0897 23.9938 27.023 24.5771L18.6897 29.1271C17.6897 29.6771 16.4897 29.6771 15.4897 29.1271L7.15632 24.5771C6.08965 23.9938 5.42298 22.8604 5.42298 21.6438Z" fill="#1421FF"/>
</svg>
