<svg width="38" height="36" viewBox="0 0 38 36" fill="none" xmlns="http://www.w3.org/2000/svg">
<path fill-rule="evenodd" clip-rule="evenodd" d="M13.9919 33.7917V27.4417C11.0085 25.7084 8.99185 22.4917 8.99185 18.775C8.99185 12.8584 14.1752 8.12504 20.2419 8.85837C24.6085 9.39171 28.2085 12.875 28.8752 17.225C29.5252 21.575 27.3919 25.475 23.9919 27.4417V33.7917C23.9919 34.7084 23.2419 35.4584 22.3252 35.4584H15.6585C14.7419 35.4584 13.9919 34.7084 13.9919 33.7917ZM33.9752 20.4584H35.6752C36.5919 20.4584 37.3252 19.725 37.3252 18.8084V18.7917C37.3252 17.875 36.5919 17.1417 35.6752 17.1417H33.9919C33.0752 17.1417 32.3419 17.875 32.3419 18.7917V18.8084C32.3252 19.725 33.0585 20.4584 33.9752 20.4584ZM29.5585 5.8917C30.2085 5.2417 31.2585 5.2417 31.9085 5.8917C32.5585 6.5417 32.5585 7.57504 31.9252 8.2417L31.2752 8.8917C30.9638 9.20379 30.5411 9.37918 30.1002 9.37918C29.6593 9.37918 29.2366 9.20379 28.9252 8.8917L28.9085 8.87504C28.2752 8.2417 28.2585 7.1917 28.9085 6.5417L29.5585 5.8917ZM18.9919 0.541702H19.0085C19.9252 0.541702 20.6585 1.27504 20.6585 2.1917V3.7917C20.6585 4.70837 19.9252 5.4417 19.0085 5.4417H18.9919C18.0752 5.4417 17.3419 4.70837 17.3419 3.7917V2.1917C17.3419 1.27504 18.0752 0.541702 18.9919 0.541702ZM5.65853 18.8084V18.7917C5.65853 17.875 4.92519 17.1417 4.00853 17.1417H2.3252C1.40853 17.1417 0.675198 17.875 0.675198 18.7917V18.8084C0.675198 19.725 1.40853 20.4584 2.3252 20.4584H4.00853C4.92519 20.4584 5.65853 19.725 5.65853 18.8084ZM8.44186 5.87503L9.09186 6.52503C9.74186 7.17503 9.74186 8.20836 9.07519 8.87503C8.44186 9.50836 7.39186 9.52503 6.74186 8.87503L6.09186 8.22503C5.44186 7.57503 5.44186 6.52503 6.09186 5.87503C6.74186 5.22503 7.79186 5.22503 8.44186 5.87503Z" fill="#1421FF"/>
</svg>
