<svg width="32" height="32" viewBox="0 0 32 32" fill="none" xmlns="http://www.w3.org/2000/svg">
<path fill-rule="evenodd" clip-rule="evenodd" d="M14.748 7.81051L21.8314 0.743848C22.4814 0.0938477 23.548 0.0938477 24.198 0.743848L31.2647 7.81051C31.9147 8.46051 31.9147 9.51051 31.2647 10.1605L24.1814 17.2438C23.5314 17.8938 22.4814 17.8938 21.8314 17.2438L14.748 10.1605C14.098 9.51051 14.098 8.46051 14.748 7.81051ZM0.248047 3.41051V13.4105C0.248047 14.3272 0.998047 15.0772 1.91471 15.0772H11.9147C12.8314 15.0772 13.5814 14.3272 13.5814 13.4105V3.41051C13.5814 2.49384 12.8314 1.74384 11.9147 1.74384H1.91471C0.998047 1.74384 0.248047 2.49384 0.248047 3.41051ZM11.9147 31.7438H1.91471C0.998047 31.7438 0.248047 30.9938 0.248047 30.0772V20.0772C0.248047 19.1605 0.998047 18.4105 1.91471 18.4105H11.9147C12.8314 18.4105 13.5814 19.1605 13.5814 20.0772V30.0772C13.5814 30.9938 12.8314 31.7438 11.9147 31.7438ZM16.9147 30.0772V20.0772C16.9147 19.1605 17.6647 18.4105 18.5814 18.4105H28.5814C29.498 18.4105 30.248 19.1605 30.248 20.0772V30.0772C30.248 30.9938 29.498 31.7438 28.5814 31.7438H18.5814C17.6647 31.7438 16.9147 30.9938 16.9147 30.0772Z" fill="#1421FF"/>
</svg>
