<svg width="32" height="32" viewBox="0 0 32 32" fill="none" xmlns="http://www.w3.org/2000/svg">
<path fill-rule="evenodd" clip-rule="evenodd" d="M13.7503 0.900098L7.55033 11.0334C6.86699 12.1334 7.66699 13.5668 8.96699 13.5668H21.3503C22.6503 13.5668 23.4503 12.1334 22.767 11.0334L16.5837 0.900098C15.9337 -0.166569 14.4003 -0.166569 13.7503 0.900098ZM24.3337 16.9001C21.6542 16.9001 19.1782 18.3296 17.8385 20.6501C16.4987 22.9706 16.4987 25.8296 17.8385 28.1501C19.1782 30.4706 21.6542 31.9001 24.3337 31.9001C27.0131 31.9001 29.4891 30.4706 30.8288 28.1501C32.1686 25.8296 32.1686 22.9706 30.8288 20.6501C29.4891 18.3296 27.0131 16.9001 24.3337 16.9001ZM11.8337 31.0668H1.83366C0.916992 31.0668 0.166992 30.3168 0.166992 29.4001V19.4001C0.166992 18.4834 0.916992 17.7334 1.83366 17.7334H11.8337C12.7503 17.7334 13.5003 18.4834 13.5003 19.4001V29.4001C13.5003 30.3168 12.7503 31.0668 11.8337 31.0668Z" fill="#1421FF"/>
</svg>
