<svg width="30" height="22" viewBox="0 0 30 22" fill="none" xmlns="http://www.w3.org/2000/svg">
<path fill-rule="evenodd" clip-rule="evenodd" d="M7.49967 21.8337H2.49967C1.58301 21.8337 0.833008 21.0837 0.833008 20.167V1.83366C0.833008 0.916992 1.58301 0.166992 2.49967 0.166992H7.49967C8.41634 0.166992 9.16634 0.916992 9.16634 1.83366V20.167C9.16634 21.0837 8.41634 21.8337 7.49967 21.8337ZM17.4997 21.8337H12.4997C11.583 21.8337 10.833 21.0837 10.833 20.167V13.5003C10.833 12.5837 11.583 11.8337 12.4997 11.8337H17.4997C18.4163 11.8337 19.1663 12.5837 19.1663 13.5003V20.167C19.1663 21.0837 18.4163 21.8337 17.4997 21.8337ZM22.4997 21.8337H27.4997C28.4163 21.8337 29.1663 21.0837 29.1663 20.167V13.5003C29.1663 12.5837 28.4163 11.8337 27.4997 11.8337H22.4997C21.583 11.8337 20.833 12.5837 20.833 13.5003V20.167C20.833 21.0837 21.583 21.8337 22.4997 21.8337ZM10.833 8.50032V1.83366C10.833 0.916992 11.583 0.166992 12.4997 0.166992H27.4997C28.4163 0.166992 29.1663 0.916992 29.1663 1.83366V8.50032C29.1663 9.41699 28.4163 10.167 27.4997 10.167H12.4997C11.583 10.167 10.833 9.41699 10.833 8.50032Z" fill="#1421FF"/>
</svg>
