<svg width="34" height="34" viewBox="0 0 34 34" fill="none" xmlns="http://www.w3.org/2000/svg">
<path fill-rule="evenodd" clip-rule="evenodd" d="M0.333008 17C0.333008 7.80001 7.79967 0.333344 16.9997 0.333344C26.1997 0.333344 33.6663 7.80001 33.6663 17C33.6663 26.2 26.1997 33.6667 16.9997 33.6667C7.79967 33.6667 0.333008 26.2 0.333008 17ZM6.49968 18.1667L12.483 24.15C13.133 24.8 14.1997 24.8 14.833 24.15L27.483 11.5C28.133 10.85 28.133 9.80001 27.483 9.15001C26.833 8.50001 25.783 8.50001 25.133 9.15001L13.6663 20.6167L8.84968 15.8167C8.19968 15.1667 7.14968 15.1667 6.49968 15.8167C6.18759 16.1281 6.0122 16.5508 6.0122 16.9917C6.0122 17.4325 6.18759 17.8553 6.49968 18.1667Z" fill="#1421FF"/>
</svg>
