<svg width="38" height="24" viewBox="0 0 38 24" fill="none" xmlns="http://www.w3.org/2000/svg">
<path fill-rule="evenodd" clip-rule="evenodd" d="M17.317 5.33325C17.317 8.09992 15.1003 10.3333 12.3337 10.3333C9.56699 10.3333 7.33366 8.09992 7.33366 5.33325C7.33366 2.56659 9.56699 0.333252 12.3337 0.333252C15.1003 0.333252 17.317 2.56659 17.317 5.33325ZM30.6503 5.33325C30.6503 8.09992 28.4337 10.3333 25.667 10.3333C22.9003 10.3333 20.667 8.09992 20.667 5.33325C20.667 2.56659 22.9003 0.333252 25.667 0.333252C28.4337 0.333252 30.6503 2.56659 30.6503 5.33325ZM12.3337 13.6666C8.45033 13.6666 0.666992 15.6166 0.666992 19.4999V21.9999C0.666992 22.9166 1.41699 23.6666 2.33366 23.6666H22.3337C23.2503 23.6666 24.0003 22.9166 24.0003 21.9999V19.4999C24.0003 15.6166 16.217 13.6666 12.3337 13.6666ZM24.0503 13.7499C24.6337 13.6999 25.1837 13.6666 25.667 13.6666C29.5503 13.6666 37.3337 15.6166 37.3337 19.4999V21.9999C37.3337 22.9166 36.5837 23.6666 35.667 23.6666H27.0337C27.217 23.1499 27.3337 22.5833 27.3337 21.9999V19.4999C27.3337 17.0499 26.017 15.1999 24.117 13.8166C24.1119 13.8115 24.1069 13.805 24.1014 13.7978C24.0887 13.7813 24.0736 13.7615 24.0503 13.7499Z" fill="#1421FF"/>
</svg>
