<svg width="34" height="28" viewBox="0 0 34 28" fill="none" xmlns="http://www.w3.org/2000/svg">
<path fill-rule="evenodd" clip-rule="evenodd" d="M3.66634 0.666992H30.333C32.1663 0.666992 33.6663 2.16699 33.6663 4.00033V24.0003C33.6663 25.8337 32.1663 27.3337 30.333 27.3337H3.66634C1.83301 27.3337 0.333008 25.8337 0.333008 24.0003V4.00033C0.333008 2.16699 1.83301 0.666992 3.66634 0.666992ZM18.7663 14.567L29.6663 7.75032C30.083 7.48365 30.333 7.03365 30.333 6.55032C30.333 5.43365 29.1163 4.76699 28.1663 5.35032L16.9997 12.3337L5.83301 5.35032C4.88301 4.76699 3.66634 5.43365 3.66634 6.55032C3.66634 7.03365 3.91634 7.48365 4.33301 7.75032L15.233 14.567C16.3163 15.2503 17.683 15.2503 18.7663 14.567Z" fill="#1421FF"/>
</svg>
